<?xml version="1.0" encoding="utf-8"?>
<!-- Generator: Adobe Illustrator 25.0.0, SVG Export Plug-In . SVG Version: 6.00 Build 0)  -->
<svg version="1.1" id="Warstwa_1" xmlns="http://www.w3.org/2000/svg" xmlns:xlink="http://www.w3.org/1999/xlink" x="0px" y="0px"
	 viewBox="0 0 131.2 131" style="enable-background:new 0 0 131.2 131;" xml:space="preserve">
<style type="text/css">
	.st0{fill:#1E313F;}
	.st1{opacity:0.2;fill:#FFFFFF;enable-background:new    ;}
	.st2{fill:#FAFBFC;}
	.st3{fill:url(#SVGID_1_);}
	.st4{fill:url(#SVGID_2_);}
</style>
<g transform="translate(64.79 63.777)">
	
		<ellipse transform="matrix(1 -3.351026e-03 3.351026e-03 1 -5.762568e-03 2.723990e-03)" class="st0" cx="0.8" cy="1.7" rx="65.6" ry="65.5"/>
	<path class="st1" d="M41.8,42.4c22.5-22.6,22.4-59.1-0.3-81.6s-59.2-22.4-81.8,0.3L41.8,42.4L41.8,42.4z"/>
	<g>
		<path class="st2" d="M6.3-3.5C5.7-3.6,5.2-3.7,4.6-3.8C-2.7-5.3-8-6.4-8-11.4c0-3.1,3-5.7,8.6-5.7c5,0,8.9,2,11.4,5.8l0.4,0.1
			l7.9-8.1v-0.3c-3.1-3.7-7.1-6.4-11.6-7.7c-0.6-0.2-1.2-0.3-1.9-0.5H6.7c-0.2,0-0.4-0.1-0.7-0.1v-7.2H-4.9v7.2
			c-0.3,0.1-0.7,0.1-1,0.2H-6c-5.2,1.2-9.5,3.8-13.1,7.9c-1.4,2.4-2.2,5.4-2.2,8.7C-21.3,0.4-12.6,4-3.9,6.2
			c1.6,0.4,3.1,0.7,4.7,0.9c5.4,1,9.9,1.8,9.9,6.6c0,2.9-3.2,6.7-10.1,6.7c-4,0-7.4-1.3-9.8-3.8c-0.1-0.1-0.3-0.3-0.5-0.4l-9.3,6.5
			v0.3c1.3,1.5,2.8,2.9,4.4,4c0.5,0.4,1.1,0.7,1.6,1.1c0.5,0.3,1.1,0.6,1.7,0.9h0.1c0.6,0.3,1.1,0.5,1.7,0.8h0.1l1.8,0.6h0.1
			c0.3,0.1,0.5,0.2,0.8,0.2h0.1c0.3,0.1,0.6,0.2,0.9,0.2h0.1c0.3,0.1,0.5,0.1,0.8,0.2v7.2H6V31c0.2,0,0.4-0.1,0.6-0.1h0.1
			c0.7-0.2,1.5-0.4,2.2-0.6c0.4-0.1,0.7-0.2,1.1-0.4c3.9-1.4,7.5-3.8,10.3-7.3c1.1-1.2,2-2.6,2.8-4c0.4-1.6,0.6-3.3,0.6-5.2
			C23.9,1.4,14.5-1.9,6.3-3.5z"/>
		
			<linearGradient id="SVGID_1_" gradientUnits="userSpaceOnUse" x1="-185.8119" y1="189.1564" x2="-185.909" y2="190.0704" gradientTransform="matrix(16.704 0 0 -39.279 3086.0483 7444.8247)">
			<stop  offset="5.800000e-04" style="stop-color:#FFFFFF"/>
			<stop  offset="1" style="stop-color:#1E313F"/>
		</linearGradient>
		<path class="st3" d="M-18.9,23c-0.5-0.6-1-1.3-1.5-1.9c-0.2-0.3-0.4-0.6-0.6-0.8c0-0.1-0.1-0.1-0.1-0.2c-0.2-0.3-0.3-0.5-0.5-0.8
			c-0.1-0.1-0.1-0.2-0.2-0.3c-0.2-0.3-0.3-0.5-0.4-0.8c-0.1-0.1-0.1-0.2-0.2-0.3c-0.1-0.3-0.3-0.5-0.4-0.8c-0.1-0.1-0.1-0.2-0.2-0.3
			c-0.1-0.3-0.3-0.5-0.4-0.8c0-0.1-0.1-0.2-0.1-0.3c-0.1-0.3-0.2-0.6-0.4-0.9c0-0.1,0-0.1-0.1-0.2c-0.2-0.7-0.5-1.3-0.7-2
			c0-0.1,0-0.1-0.1-0.2c-0.1-0.2-0.1-0.5-0.2-0.7c-0.1-0.2-0.1-0.4-0.2-0.6c-0.1-0.2-0.1-0.5-0.2-0.7c0-0.2-0.1-0.4-0.1-0.7
			c0-0.2-0.1-0.4-0.1-0.7c0-0.2-0.1-0.5-0.1-0.7c0-0.2-0.1-0.4-0.1-0.6c0-0.3-0.1-0.5-0.1-0.8c0-0.2-0.1-0.4-0.1-0.6
			c0-0.3-0.1-0.6-0.1-0.8V4.7c0-0.3,0-0.6-0.1-0.9V3.2V1.8V0.4V0c0-0.3,0-0.6,0.1-1v-0.5c0-0.3,0.1-0.6,0.1-0.9c0-0.2,0-0.3,0.1-0.5
			c0-0.4,0.1-0.7,0.1-1.1v-0.3c0.1-0.4,0.1-0.9,0.2-1.3c0-0.1,0.1-0.3,0.1-0.4c0.1-0.3,0.1-0.6,0.2-0.9c0-0.2,0.1-0.3,0.1-0.5
			c0.1-0.3,0.1-0.5,0.2-0.8c0-0.2,0.1-0.3,0.1-0.5c0.1-0.3,0.2-0.6,0.3-0.8c0-0.1,0.1-0.3,0.1-0.4c0.1-0.4,0.3-0.8,0.4-1.2
			c0-0.1,0.1-0.2,0.1-0.4c0.1-0.3,0.2-0.5,0.3-0.8c0.1-0.2,0.1-0.3,0.2-0.5s0.2-0.5,0.3-0.7c0.1-0.2,0.2-0.3,0.2-0.5
			c0.1-0.2,0.2-0.5,0.4-0.7c0.1-0.1,0.1-0.3,0.2-0.4c0.2-0.3,0.4-0.7,0.6-1c-0.4,1.6-0.6,3.3-0.6,5.3c0,6.4,2.7,11.2,8,14.5
			c0.3,5.8,1.9,10.2,4.9,13.2L-18.9,23L-18.9,23z"/>
		
			<linearGradient id="SVGID_2_" gradientUnits="userSpaceOnUse" x1="-186.2033" y1="190.2222" x2="-186.1019" y2="189.2717" gradientTransform="matrix(15.489 0 0 -35.128 2903.7444 6668.7759)">
			<stop  offset="5.800000e-04" style="stop-color:#FFFFFF"/>
			<stop  offset="0.9967" style="stop-color:#4E5A64"/>
		</linearGradient>
		<path class="st4" d="M12.2-11.2C14-8.8,15-5.7,15.4-1.8c1.3,0.6,2.5,1.4,3.6,2.2C23,3.5,25,8,25,13.8c0,0.7,0,1.4-0.1,2
			c0.2-0.5,0.4-0.9,0.6-1.4c0-0.1,0.1-0.3,0.1-0.4c0.1-0.3,0.2-0.7,0.3-1c0.1-0.2,0.1-0.3,0.2-0.5c0.1-0.2,0.1-0.4,0.2-0.6
			c0.1-0.3,0.2-0.5,0.2-0.8c0.1-0.2,0.1-0.4,0.2-0.6c0.1-0.2,0.1-0.5,0.2-0.7c0-0.2,0.1-0.3,0.1-0.5c0.1-0.4,0.1-0.7,0.2-1.1
			c0-0.1,0-0.3,0.1-0.4c0.1-0.4,0.1-0.8,0.2-1.2V6.3c0-0.4,0.1-0.7,0.1-1.1V4.9c0-0.4,0.1-0.9,0.1-1.3V3.2V1.8V0.3v-0.5
			c0-0.3,0-0.7-0.1-1c0-0.2,0-0.4-0.1-0.6c0-0.3-0.1-0.6-0.1-0.9c0-0.2-0.1-0.4-0.1-0.6c0-0.3-0.1-0.5-0.1-0.8
			c0-0.2-0.1-0.4-0.1-0.6c0-0.3-0.1-0.5-0.1-0.8c0-0.2-0.1-0.4-0.1-0.6c-0.1-0.2-0.1-0.5-0.2-0.7c-0.1-0.2-0.1-0.4-0.2-0.6
			c-0.1-0.2-0.1-0.5-0.2-0.7c-0.1-0.2-0.1-0.4-0.2-0.6C26-9,26-9.3,25.9-9.5c-0.1-0.2-0.1-0.4-0.2-0.6c-0.1-0.2-0.2-0.4-0.2-0.6
			c-0.1-0.2-0.2-0.4-0.2-0.6L25-11.9l-0.3-0.6l-0.3-0.6l-0.3-0.6l-0.3-0.6c-0.1-0.2-0.2-0.4-0.3-0.6c-0.1-0.2-0.2-0.4-0.3-0.5
			l-0.3-0.6c-0.1-0.2-0.2-0.3-0.3-0.5c-0.4-0.5-0.7-1.1-1.1-1.6c-0.3-0.4-0.6-0.7-0.9-1.1C20.5-19.3,12.2-11.2,12.2-11.2z"/>
	</g>
</g>
</svg>
