<?xml version="1.0" encoding="utf-8"?>
<!-- Generator: Adobe Illustrator 25.0.0, SVG Export Plug-In . SVG Version: 6.00 Build 0)  -->
<svg version="1.1" id="Warstwa_1" xmlns="http://www.w3.org/2000/svg" xmlns:xlink="http://www.w3.org/1999/xlink" x="0px" y="0px"
	 viewBox="0 0 368 368" style="enable-background:new 0 0 368 368;" xml:space="preserve">
<style type="text/css">
	.st0{fill:#0E052F;}
	.st1{fill:#FFFFFF;}
</style>
<circle class="st0" cx="183.6" cy="184.1" r="184"/>
<path class="st1" d="M177.5,267.2c-8-0.6-15.5-2.4-22.6-5.3c-7-3-13.1-7-18.2-11.8c-5.1-4.8-9.2-10.3-12.2-16.6
	c-3-6.2-4.6-13-4.8-20.4h29.5c0.3,7.8,3,14.4,8.2,19.7c5.3,5.1,12,8.1,20.2,8.9v-47.5l-11.3-1.7c-13-1.8-23.3-6.6-31-14.6
	c-7.5-8-11.3-18.2-11.3-30.5c0-6.4,1.4-12.4,4.3-18c2.9-5.8,6.8-10.8,11.8-15.1c5-4.5,10.6-8.1,17-10.8c6.6-2.7,13.4-4.4,20.4-5
	V76.1H195v22.8c7.2,1,13.8,2.9,19.9,5.8c6.1,2.7,11.4,6.2,15.8,10.6c4.5,4.3,8,9.3,10.6,14.9c2.7,5.6,4.2,11.6,4.6,18h-29.5
	c-0.3-5.8-2.5-10.7-6.5-14.9c-3.8-4.3-8.8-7.3-14.9-8.9v43.9l8.2,1.2c6.1,1,11.8,2.6,17.3,5c5.4,2.4,10.2,5.5,14.2,9.4
	c4.2,3.8,7.4,8.5,9.6,13.9c2.4,5.3,3.6,11.3,3.6,18c0,7.2-1.4,13.8-4.1,19.7c-2.6,5.8-6.2,10.9-11,15.4c-4.6,4.3-10.2,7.9-16.8,10.8
	c-6.4,2.7-13.4,4.5-20.9,5.3v24.7h-17.5V267.2z M195,241.5c7.5-1.3,13.4-4,17.5-8.2c4.2-4.3,6.2-9.8,6.2-16.3c0-6.1-2-10.6-6-13.4
	c-4-3-8.6-5-13.7-6l-4.1-0.7V241.5z M177.5,123.6c-6.7,1-12.5,3.4-17.3,7.4c-4.6,3.8-7,9-7,15.6c0,5.6,1.5,9.8,4.6,12.7
	c3.2,2.7,7.4,4.5,12.5,5.3l7.2,1.2V123.6z"/>
</svg>
