<?xml version="1.0" encoding="utf-8"?>
<!-- Generator: Adobe Illustrator 25.0.0, SVG Export Plug-In . SVG Version: 6.00 Build 0)  -->
<svg version="1.1" id="Warstwa_1" xmlns="http://www.w3.org/2000/svg" xmlns:xlink="http://www.w3.org/1999/xlink" x="0px" y="0px"
	 viewBox="0 0 320 320" style="enable-background:new 0 0 320 320;" xml:space="preserve">
<style type="text/css">
	.st0{fill-rule:evenodd;clip-rule:evenodd;fill:#971819;}
	.st1{fill-rule:evenodd;clip-rule:evenodd;fill:#FFFFFF;}
</style>
<circle class="st0" cx="160" cy="160" r="160"/>
<g>
	<g>
		<path class="st1" d="M153.2,82.4c4.4,2.8,27.6,1.1,35,1v97c0,14.7,1.9,33.8-4,43c-8.6,13.3-35.3,17.4-46,3c-6.5-8.8-6.3-24.3-6-40
			h-29c-0.2,12.9-1.3,27.8,2,38c9.6,29.6,50,53.6,85,32c10.1-6.2,19.2-17.5,24-29c1.7-4,3-6.8,3-13v-159
			C199.6,65.9,177.1,79.7,153.2,82.4z M132.2,139.4h-29v28h29V139.4z"/>
	</g>
</g>
</svg>
