<svg width="30" height="30" viewBox="0 0 30 30" fill="none" xmlns="http://www.w3.org/2000/svg">
<path d="M15 29.6339C23.0821 29.6339 29.634 23.082 29.634 14.9999C29.634 6.91777 23.0821 0.365906 15 0.365906C6.91783 0.365906 0.365967 6.91777 0.365967 14.9999C0.365967 23.082 6.91783 29.6339 15 29.6339Z" fill="#06D6A0"/>
<path d="M16.1221 9.82186C17.4421 9.82186 18.4801 10.5359 19.1221 11.1059C19.5241 11.4479 19.9321 11.3879 20.4481 10.8899L21.4981 9.81586C21.9481 9.38386 21.9481 9.04786 21.4981 8.52586C20.8201 7.89586 19.9141 7.43986 18.8281 7.16986L19.3381 4.92586C19.3681 4.81186 19.2841 4.70386 19.1641 4.70386H18.2581C18.1381 4.70386 18.0361 4.78186 18.0001 4.88986L17.5381 6.94186C17.1541 6.89986 16.7521 6.87586 16.3381 6.86986L16.7761 4.92586C16.8061 4.81186 16.7221 4.70386 16.6021 4.70386H15.6961C15.5761 4.70386 15.4741 4.78186 15.4381 4.88986L14.9761 6.94186C11.8681 7.32586 9.85211 9.23386 9.85211 11.9219C9.85211 13.0019 10.2661 13.9439 11.0881 14.7179C11.9161 15.5039 12.9901 15.9179 13.7401 16.1639C14.0101 16.2539 14.2621 16.3319 14.5081 16.4039C15.7201 16.7699 16.6381 17.2319 16.6381 18.1619C16.6381 19.1279 15.6421 19.9559 14.2201 19.9559C12.8281 19.9559 11.2681 19.1159 10.4521 18.3239C10.3441 18.2279 10.1701 18.0959 9.94211 18.0959C9.70211 18.0959 9.43211 18.2399 9.13811 18.5219L8.01611 19.6439C7.57211 20.0879 7.54811 20.5379 7.95011 20.9579C8.74811 21.8519 9.95411 22.5059 11.3761 22.8479L10.8961 24.9779C10.8481 25.1339 10.9741 25.2899 11.1421 25.2899H11.9101C12.0541 25.2899 12.1801 25.1999 12.2161 25.0619L12.6661 23.0639C13.0321 23.0999 13.4041 23.1239 13.7821 23.1239C13.8121 23.1239 13.8421 23.1239 13.8721 23.1239L13.4521 24.9779C13.4041 25.1339 13.5301 25.2899 13.6981 25.2899H14.4661C14.6101 25.2899 14.7361 25.1999 14.7721 25.0619L15.2341 23.0279C16.5481 22.8479 17.7301 22.4279 18.6421 21.7979C20.0161 20.8439 20.8201 19.1819 20.8201 17.4839C20.8201 14.8739 18.4921 14.0459 16.4401 13.2839C16.3321 13.2419 16.2241 13.2059 16.1161 13.1639L15.9841 13.1159C15.0121 12.7499 13.9681 12.3419 13.9681 11.3759C13.9501 10.4879 14.8621 9.82186 16.1221 9.82186Z" fill="white"/>
</svg>
