<?xml version="1.0" encoding="iso-8859-1"?>
<!-- Generator: Adobe Illustrator 25.0.0, SVG Export Plug-In . SVG Version: 6.00 Build 0)  -->
<svg version="1.1" id="Warstwa_1" xmlns="http://www.w3.org/2000/svg" xmlns:xlink="http://www.w3.org/1999/xlink" x="0px" y="0px"
	 viewBox="0 0 100 100" style="enable-background:new 0 0 100 100;" xml:space="preserve">
<polygon style="fill:#F0B90B;" points="33.556,21.009 23.813,15.397 50.313,0.042 76.892,15.397 67.149,21.009 50.313,11.344 "/>
<polygon style="fill:#F0B90B;" points="83.829,30.674 83.829,41.975 93.571,36.364 93.571,25.062 83.829,19.372 74.086,24.984 "/>
<polygon style="fill:#F0B90B;" points="40.571,25.062 50.313,30.674 60.056,25.062 50.313,19.372 "/>
<polygon style="fill:#F0B90B;" points="76.892,34.727 67.149,29.115 50.313,38.78 33.556,29.115 23.813,34.727 23.813,46.028 
	40.571,55.693 40.571,75.023 50.313,80.635 60.056,75.023 60.056,55.693 76.892,46.028 "/>
<polygon style="fill:#F0B90B;" points="83.829,69.411 67.071,79.076 67.071,90.378 93.649,75.023 93.649,44.392 83.829,50.081 "/>
<polygon style="fill:#F0B90B;" points="67.071,71.048 76.814,65.436 76.814,54.056 67.071,59.668 "/>
<polygon style="fill:#F0B90B;" points="40.571,83.129 40.571,94.431 50.313,100.042 60.056,94.431 60.056,83.129 50.313,88.741 "/>
<polygon style="fill:#F0B90B;" points="6.978,36.364 16.72,41.975 16.72,30.674 26.463,25.062 16.798,19.372 7.056,24.984 
	7.056,36.364 "/>
<polygon style="fill:#F0B90B;" points="16.798,50.081 7.056,44.47 7.056,75.101 33.634,90.456 33.634,79.154 16.798,69.411 "/>
<polygon style="fill:#F0B90B;" points="33.556,59.746 23.813,54.134 23.813,65.436 33.556,71.048 "/>
</svg>
