<?xml version="1.0" encoding="iso-8859-1"?>
<!-- Generator: Adobe Illustrator 25.0.0, SVG Export Plug-In . SVG Version: 6.00 Build 0)  -->
<svg version="1.1" id="Warstwa_1" xmlns="http://www.w3.org/2000/svg" xmlns:xlink="http://www.w3.org/1999/xlink" x="0px" y="0px"
	 viewBox="0 0 100 100" style="enable-background:new 0 0 100 100;" xml:space="preserve">
<path style="fill:#23AF91;" d="M33.046,50l29.62,29.62l18.68-18.68c3.285-3.285,8.626-3.285,11.94,0
	c3.285,3.285,3.285,8.626,0,11.94L68.664,97.558c-3.342,3.256-8.655,3.256-11.996,0L21.135,61.94v21.137
	c0.4,4.656-3.056,8.769-7.712,9.169c-4.656,0.4-8.769-3.056-9.169-7.712c-0.028-0.486-0.028-0.971,0-1.457V16.924
	c-0.4-4.656,3.056-8.769,7.712-9.169c4.656-0.4,8.769,3.056,9.169,7.712c0.028,0.486,0.028,0.971,0,1.457V38.06L56.696,2.442
	c3.342-3.256,8.655-3.256,11.996,0l24.621,24.679c3.285,3.285,3.285,8.626,0,11.94s-8.626,3.285-11.94,0l0,0l-18.68-18.68L33.046,50
	z M62.665,41.517L62.665,41.517c-4.684,0-8.483,3.799-8.483,8.483s3.799,8.483,8.483,8.483s8.483-3.799,8.483-8.483
	S67.35,41.517,62.665,41.517L62.665,41.517z"/>
</svg>
