<?xml version="1.0" encoding="iso-8859-1"?>
<!-- Generator: Adobe Illustrator 25.0.0, SVG Export Plug-In . SVG Version: 6.00 Build 0)  -->
<svg version="1.1" id="Warstwa_1" xmlns="http://www.w3.org/2000/svg" xmlns:xlink="http://www.w3.org/1999/xlink" x="0px" y="0px"
	 viewBox="0 0 100 100" style="enable-background:new 0 0 100 100;" xml:space="preserve">
<path style="fill:#8247E5;" d="M75.461,33.542c-1.845-1.073-4.244-1.073-6.273,0l-14.391,8.229l-9.779,5.367l-14.391,8.229
	c-1.845,1.073-4.244,1.073-6.273,0l-11.439-6.44c-1.845-1.073-3.136-3.041-3.136-5.188V31.038c0-2.147,1.107-4.114,3.136-5.188
	l11.255-6.261c1.845-1.073,4.244-1.073,6.273,0l11.255,6.261c1.845,1.073,3.137,3.041,3.137,5.188v8.229l9.779-5.546v-8.229
	c0-2.147-1.107-4.114-3.136-5.188L30.627,8.497c-1.845-1.073-4.244-1.073-6.273,0L3.137,20.304C1.107,21.377,0,23.345,0,25.492
	v23.793c0,2.147,1.107,4.114,3.137,5.188l21.218,11.807c1.845,1.073,4.244,1.073,6.273,0l14.391-8.05l9.779-5.546l14.391-8.05
	c1.845-1.073,4.244-1.073,6.273,0l11.255,6.261c1.845,1.073,3.137,3.041,3.137,5.188v12.701c0,2.147-1.107,4.114-3.137,5.188
	l-11.255,6.44c-1.845,1.073-4.244,1.073-6.273,0L57.934,74.15c-1.845-1.073-3.137-3.041-3.137-5.188v-8.229l-9.779,5.546v8.229
	c0,2.147,1.107,4.114,3.137,5.188l21.218,11.807c1.845,1.073,4.244,1.073,6.273,0l21.218-11.807
	c1.845-1.073,3.137-3.041,3.137-5.188V50.716c0-2.147-1.107-4.114-3.137-5.188L75.461,33.542z"/>
</svg>
