<?xml version="1.0" encoding="iso-8859-1"?>
<!-- Generator: Adobe Illustrator 25.0.0, SVG Export Plug-In . SVG Version: 6.00 Build 0)  -->
<svg version="1.1" id="Warstwa_1" xmlns="http://www.w3.org/2000/svg" xmlns:xlink="http://www.w3.org/1999/xlink" x="0px" y="0px"
	 viewBox="0 0 100 100" style="enable-background:new 0 0 100 100;" xml:space="preserve">
<path style="fill-rule:evenodd;clip-rule:evenodd;fill:#0E3CA5;" d="M44.182,78.655c2.653,10.122,12.177,17.846,16.984,17.53
	c0.168-0.011,18.242-3.485,28.136-20.526c7.701-13.26,5.078-26.062-5.395-26.34c-3.767,0.282-44.785,10.053-39.725,29.34"/>
<path style="fill-rule:evenodd;clip-rule:evenodd;fill:#0E3CA5;" d="M53.279,2.445c-6.82,0-13.294,1.464-19.15,4.075
	c-1.025,0.429-2.023,0.92-2.989,1.468c-0.663,0.355-1.327,0.705-1.967,1.087l0.152,0.05c-1.941,1.346-3.61,2.913-4.979,4.727
	C10.801,31.785,56.199,44.82,80.469,44.866c11.17,8.033,14.304-22.623,3.393-31.132C75.349,6.428,64.496,2.422,53.279,2.445z"/>
<path style="fill-rule:evenodd;clip-rule:evenodd;fill:#5493F7;" d="M36.218,12.959C30.08,21.976,9.63,28.331,6.268,27.34
	l-0.015-0.038l0.419-0.812c3.513-6.592,8.503-12.284,14.579-16.63c1.258-0.904,2.562-1.746,3.908-2.531
	c2.856-1.62,5.791-1.719,6.756-1.758c9.104,0.168,4.35,7.316,4.3,7.388"/>
<g transform="translate(0 8.197)">
	<defs>
		<filter id="Adobe_OpacityMaskFilter" filterUnits="userSpaceOnUse" x="0" y="25.498" width="31.251" height="62.499">
			<feColorMatrix  type="matrix" values="1 0 0 0 0  0 1 0 0 0  0 0 1 0 0  0 0 0 1 0"/>
		</filter>
	</defs>
	<mask maskUnits="userSpaceOnUse" x="0" y="25.498" width="31.251" height="62.499" id="b_2_">
		<g style="filter:url(#Adobe_OpacityMaskFilter);">
			<path id="a_2_" style="fill-rule:evenodd;clip-rule:evenodd;fill:#FFFFFF;" d="M0,25.498h31.25v62.497H0V25.498z"/>
		</g>
	</mask>
	<path style="mask:url(#b_2_);fill-rule:evenodd;clip-rule:evenodd;fill:#5493F7;" d="M31.068,72.33
		c0.457,2.962-0.011,14.67-0.629,15.658c-0.526,0.03-1.632,0.099-4.823-1.67C19.424,82.829,14.033,78.081,9.79,72.38
		c-3.104-4.176-5.535-8.812-7.205-13.74C0.865,53.542-0.008,48.198,0,42.818c-0.01-5.914,1.047-11.781,3.119-17.32h0.008
		c3.66,4.8,7.892,9.142,11.487,13.992c3.427,4.613,8.14,12.135,9.096,13.744C29.665,63.211,30.614,69.368,31.068,72.33"/>
</g>
<path style="fill-rule:evenodd;clip-rule:evenodd;fill:#5493F7;" d="M100,51.568c0,6.401-1.22,12.52-3.427,18.132
	c-5.795,6.252-44.88-9.135-45.265-9.302c-5.345-2.348-21.616-9.501-23.084-20.732c-2.112-16.157,30.568-27.419,44.929-27.846
	c1.719,0.019,6.961,0.08,10.015,2.573c10.713,9.38,16.85,22.932,16.832,37.171 M65.822,91.533
	c2.337-8.273,22.772-16.752,27.282-17.209c0.557-0.057,0.793,0.335,0.549,0.785c-4.705,8.555-11.67,15.6-20.099,20.168
	C69.291,97.344,64.602,95.838,65.822,91.533z"/>
</svg>
