<?xml version="1.0" encoding="iso-8859-1"?>
<!-- Generator: Adobe Illustrator 25.0.0, SVG Export Plug-In . SVG Version: 6.00 Build 0)  -->
<svg version="1.1" id="Warstwa_1" xmlns="http://www.w3.org/2000/svg" xmlns:xlink="http://www.w3.org/1999/xlink" x="0px" y="0px"
	 viewBox="0 0 100 100" style="enable-background:new 0 0 100 100;" xml:space="preserve">
<linearGradient id="SVGID_1_" gradientUnits="userSpaceOnUse" x1="3.0179" y1="5.0181" x2="96.951" y2="98.9509" gradientTransform="matrix(1 0 0 -1 0 102)">
	<stop  offset="0" style="stop-color:#9945FF"/>
	<stop  offset="0.14" style="stop-color:#8A53F4"/>
	<stop  offset="0.42" style="stop-color:#6377D6"/>
	<stop  offset="0.79" style="stop-color:#24B0A7"/>
	<stop  offset="0.99" style="stop-color:#00D18C"/>
	<stop  offset="1" style="stop-color:#00D18C"/>
</linearGradient>
<path style="fill-rule:evenodd;clip-rule:evenodd;fill:url(#SVGID_1_);" d="M17.175,73.625c0.32-0.346,0.706-0.624,1.135-0.817
	c0.43-0.193,0.894-0.298,1.365-0.307h78.549c0.333,0.005,0.656,0.105,0.933,0.29c0.277,0.184,0.494,0.445,0.626,0.75
	c0.132,0.305,0.173,0.642,0.118,0.97c-0.054,0.328-0.202,0.633-0.427,0.878l-16.65,18.487c-0.32,0.346-0.706,0.624-1.135,0.817
	c-0.43,0.193-0.894,0.298-1.365,0.307H1.726c-0.332-0.005-0.656-0.105-0.933-0.29c-0.277-0.184-0.494-0.445-0.626-0.75
	c-0.132-0.305-0.173-0.642-0.118-0.97c0.055-0.328,0.203-0.633,0.427-0.878L17.175,73.625z M99.55,58.3
	c0.224,0.246,0.372,0.551,0.427,0.878c0.055,0.328,0.014,0.664-0.118,0.97c-0.132,0.305-0.35,0.565-0.626,0.75
	s-0.6,0.285-0.933,0.29L19.725,61.25c-0.471-0.01-0.935-0.114-1.365-0.307s-0.816-0.471-1.135-0.817L0.451,41.7
	c-0.224-0.246-0.372-0.551-0.427-0.878c-0.055-0.328-0.014-0.664,0.118-0.97c0.132-0.305,0.349-0.565,0.626-0.75
	c0.277-0.184,0.6-0.285,0.933-0.29l78.574-0.063c0.471,0.01,0.935,0.114,1.365,0.307c0.43,0.193,0.816,0.471,1.135,0.817L99.55,58.3
	z M17.175,6.126c0.32-0.346,0.706-0.624,1.135-0.817c0.43-0.193,0.894-0.298,1.365-0.308l78.599,0.062
	c0.332,0.005,0.656,0.105,0.933,0.29c0.277,0.184,0.494,0.445,0.625,0.75c0.132,0.305,0.173,0.642,0.119,0.97
	c-0.055,0.328-0.203,0.633-0.427,0.878l-16.7,18.425c-0.32,0.346-0.706,0.624-1.135,0.817c-0.43,0.193-0.894,0.298-1.365,0.307
	H1.726c-0.332-0.005-0.656-0.105-0.933-0.29c-0.277-0.184-0.494-0.445-0.626-0.75c-0.132-0.305-0.173-0.642-0.118-0.97
	c0.055-0.328,0.203-0.633,0.427-0.878L17.175,6.126z"/>
</svg>
