<?xml version="1.0" encoding="iso-8859-1"?>
<!-- Generator: Adobe Illustrator 25.0.0, SVG Export Plug-In . SVG Version: 6.00 Build 0)  -->
<svg version="1.1" id="Warstwa_1" xmlns="http://www.w3.org/2000/svg" xmlns:xlink="http://www.w3.org/1999/xlink" x="0px" y="0px"
	 viewBox="0 0 300 300" style="enable-background:new 0 0 300 300;" xml:space="preserve">
<path style="fill:#FFFFFF;" d="M107.614,150l74.05,74.05l46.701-46.701c8.212-8.212,21.565-8.212,29.849,0
	c8.212,8.212,8.212,21.565,0,29.849l-61.554,61.697c-8.355,8.141-21.637,8.141-29.991,0l-88.832-89.046v52.842
	c1,11.64-7.641,21.922-19.28,22.922c-11.64,1-21.922-7.641-22.922-19.28c-0.071-1.214-0.071-2.428,0-3.642V67.309
	c-1-11.64,7.641-21.922,19.28-22.922c11.64-1,21.922,7.641,22.922,19.28c0.071,1.214,0.071,2.428,0,3.642v52.842l88.903-89.046
	c8.355-8.141,21.637-8.141,29.991,0l61.554,61.697c8.212,8.212,8.212,21.565,0,29.849s-21.565,8.212-29.849,0l0,0L181.736,75.95
	L107.614,150z M181.664,128.792L181.664,128.792c-11.711,0-21.208,9.497-21.208,21.208s9.497,21.208,21.208,21.208
	c11.711,0,21.208-9.497,21.208-21.208C202.872,138.289,193.375,128.792,181.664,128.792L181.664,128.792z"/>
</svg>
